<svg width="128" height="52" viewBox="0 0 128 52" fill="none" xmlns="http://www.w3.org/2000/svg">
<path d="M6.718 43.504C5.256 43.504 3.913 42.994 2.689 41.974C1.465 40.954 0.852999 39.56 0.852999 37.792C0.852999 37.588 0.903999 37.486 1.006 37.486C1.142 37.486 1.261 37.673 1.363 38.047C2.111 40.631 3.777 41.923 6.361 41.923C9.999 41.923 13.569 37.639 17.071 29.071C17.173 28.765 17.258 28.51 17.326 28.306C17.428 28.136 17.547 27.881 17.683 27.541C17.819 27.167 18.006 26.589 18.244 25.807C18.516 25.025 18.907 23.92 19.417 22.492L21.763 15.709C20.131 15.233 19.315 14.281 19.315 12.853C19.315 12.547 19.4 12.394 19.57 12.394L22.171 12.853H22.477C22.647 12.853 22.766 12.802 22.834 12.7C23.208 12.19 23.463 11.578 23.599 10.864C24.245 8.858 24.84 7.158 25.384 5.764C25.962 4.37 26.506 3.282 27.016 2.5C28.104 0.901998 29.413 0.102997 30.943 0.102997C31.725 0.102997 32.405 0.323998 32.983 0.765998C33.561 1.208 33.85 1.769 33.85 2.449C33.85 4.081 33.323 4.897 32.269 4.897C31.929 4.897 31.759 4.795 31.759 4.591C32.031 3.979 32.167 3.248 32.167 2.398C32.167 1.48 31.912 1.021 31.402 1.021C30.382 1.021 29.124 2.483 27.628 5.407C27.526 5.645 27.373 5.968 27.169 6.376C26.999 6.784 26.676 7.668 26.2 9.028C25.52 10.966 25.18 12.02 25.18 12.19C25.18 12.53 25.401 12.7 25.843 12.7L32.32 12.547C32.422 12.547 32.473 12.615 32.473 12.751C30.161 13.533 28.291 14.162 26.863 14.638C25.469 15.08 24.5 15.369 23.956 15.505C23.956 15.641 23.837 16.066 23.599 16.78C23.361 17.46 22.953 18.752 22.375 20.656C21.117 24.77 19.893 28.255 18.703 31.111C17.513 34.001 16.289 36.347 15.031 38.149C12.549 41.719 9.778 43.504 6.718 43.504ZM31.4889 28C28.7349 28 27.3579 26.555 27.3579 23.665C27.3579 22.509 27.6129 21.285 28.1229 19.993C28.6669 18.667 29.3299 17.596 30.1119 16.78C29.7379 16.134 29.5509 15.335 29.5509 14.383C29.5509 13.397 29.9589 12.513 30.7749 11.731C31.5909 10.915 32.5939 10.507 33.7839 10.507C35.9939 10.507 37.4899 11.663 38.2719 13.975C39.8699 14.281 40.6689 14.655 40.6689 15.097C40.6689 15.607 40.4989 15.862 40.1589 15.862L38.8839 15.658C38.9179 15.998 38.9349 16.304 38.9349 16.576C38.9689 16.848 38.9859 17.086 38.9859 17.29C38.9859 20.078 38.2719 22.577 36.8439 24.787C35.4159 26.929 33.6309 28 31.4889 28ZM30.8259 16.321C33.1379 14.587 34.7359 13.72 35.6199 13.72H35.7729C35.2969 12.53 34.4129 11.935 33.1209 11.935C32.5429 11.935 32.0669 12.139 31.6929 12.547C31.3189 12.921 31.0469 13.38 30.8769 13.924C30.7069 14.468 30.6219 14.961 30.6219 15.403C30.6219 15.811 30.6899 16.117 30.8259 16.321ZM31.4379 27.388C32.8319 27.388 34.1409 26.3 35.3649 24.124C36.5889 21.914 37.2009 19.806 37.2009 17.8C37.2009 16.916 37.0479 16.202 36.7419 15.658C35.4839 15.862 34.1069 16.661 32.6109 18.055C32.9509 18.293 33.2229 18.412 33.4269 18.412C33.6309 18.378 33.7499 18.361 33.7839 18.361C33.9539 18.361 34.0389 18.446 34.0389 18.616C34.0389 18.888 33.8179 19.024 33.3759 19.024C33.0019 19.024 32.5769 18.905 32.1009 18.667C30.2989 20.775 29.3979 22.764 29.3979 24.634C29.3979 26.47 30.0779 27.388 31.4379 27.388ZM41.7092 28.102C41.4032 28.102 41.0632 28.017 40.6892 27.847C40.3152 27.677 40.1282 27.473 40.1282 27.235C40.1282 26.657 40.6892 24.617 41.8112 21.115C42.9332 17.579 43.4942 14.927 43.4942 13.159C43.4942 12.615 43.2562 12.309 42.7802 12.241C42.3042 12.173 42.0662 12.071 42.0662 11.935C42.0662 11.629 42.3212 11.476 42.8312 11.476C45.1092 11.476 46.2482 12.411 46.2482 14.281C46.2482 14.825 45.6872 16.831 44.5652 20.299C46.4012 17.307 48.4412 15.25 50.6852 14.128C51.2632 12.904 52.0622 12.292 53.0822 12.292C54.0682 12.292 54.6122 12.377 54.7142 12.547C54.6802 12.513 54.6122 12.564 54.5102 12.7C54.4082 12.836 54.2892 12.989 54.1532 13.159C53.6092 13.941 53.1332 14.706 52.7252 15.454C52.3172 16.168 52.0962 16.729 52.0622 17.137C52.0622 18.055 52.3852 18.616 53.0312 18.82C53.0992 18.854 53.1672 18.871 53.2352 18.871C53.3372 18.871 53.3882 18.905 53.3882 18.973C53.3882 19.245 53.0482 19.381 52.3682 19.381C51.7222 19.381 51.1612 19.126 50.6852 18.616C50.4132 18.31 50.2262 17.987 50.1242 17.647C50.0222 17.273 49.9712 16.916 49.9712 16.576C49.9712 16.032 50.0562 15.539 50.2262 15.097C49.3762 15.743 48.6112 16.423 47.9312 17.137C47.2512 17.817 46.6222 18.497 46.0442 19.177C44.9562 20.571 44.1912 21.812 43.7492 22.9C43.3412 23.954 43.0522 24.855 42.8822 25.603C42.6782 26.419 42.5082 27.048 42.3722 27.49C42.2362 27.898 42.0152 28.102 41.7092 28.102ZM56.4872 28.561C53.5972 28.561 52.1522 27.218 52.1522 24.532C52.1522 22.458 53.1722 19.942 55.2122 16.984C57.3202 14.026 59.3262 12.547 61.2302 12.547C62.0462 12.547 62.7602 12.819 63.3722 13.363C64.0182 13.873 64.3412 14.502 64.3412 15.25C64.3412 16.508 63.5422 17.783 61.9442 19.075C60.3802 20.333 58.8332 20.962 57.3032 20.962C56.9972 20.962 56.8442 20.894 56.8442 20.758L56.9972 20.503C60.9072 19.279 62.8622 17.273 62.8622 14.485C62.8622 14.077 62.7262 13.873 62.4542 13.873C62.0802 13.873 61.4002 14.264 60.4142 15.046C59.5642 15.726 58.7652 16.508 58.0172 17.392C57.3032 18.276 56.6572 19.194 56.0792 20.146C54.8552 22.22 54.2432 23.954 54.2432 25.348C54.2432 26.708 54.7702 27.388 55.8242 27.388C57.0482 27.388 58.3912 26.759 59.8532 25.501C60.3292 25.059 60.8392 24.566 61.3832 24.022C61.9272 23.444 62.5222 22.815 63.1682 22.135C64.4262 20.775 65.0892 20.095 65.1572 20.095C65.3612 20.095 65.4632 20.18 65.4632 20.35C65.4632 20.486 65.4292 20.622 65.3612 20.758C61.7912 25.96 58.8332 28.561 56.4872 28.561ZM67.0729 29.173C66.2229 29.173 65.4749 29.02 64.8289 28.714C64.2169 28.408 63.9109 28.119 63.9109 27.847C67.8209 27.031 69.7759 26.045 69.7759 24.889C69.7759 24.651 69.3169 24.124 68.3989 23.308C66.6309 21.744 65.7469 19.993 65.7469 18.055C65.7469 16.661 66.6139 15.284 68.3479 13.924C70.1499 12.496 71.7819 11.782 73.2439 11.782C73.4819 11.782 73.9579 12.139 74.6719 12.853C75.3859 13.567 75.7429 14.026 75.7429 14.23C75.7429 14.4 75.6579 14.485 75.4879 14.485C75.1139 14.417 74.8079 14.366 74.5699 14.332C74.3319 14.264 74.1619 14.23 74.0599 14.23C72.5299 14.23 70.9489 14.791 69.3169 15.913C67.7189 17.035 66.9199 18.174 66.9199 19.33C66.9199 19.534 67.7189 20.571 69.3169 22.441C70.9149 24.243 71.7139 25.484 71.7139 26.164C71.7139 26.844 71.2379 27.507 70.2859 28.153C69.7759 28.493 69.2319 28.748 68.6539 28.918C68.1099 29.088 67.5829 29.173 67.0729 29.173ZM81.9203 10.201C81.1723 10.201 80.5603 9.997 80.0843 9.589C80.7303 9.147 81.4103 8.569 82.1243 7.855C82.8723 7.141 83.6373 6.291 84.4193 5.305C84.4873 5.305 84.5213 5.39 84.5213 5.56L84.2663 7.039C84.0963 8.093 83.7903 8.892 83.3483 9.436C82.9063 9.946 82.4303 10.201 81.9203 10.201ZM77.0243 28.765C75.7323 28.765 75.0863 27.83 75.0863 25.96C75.0863 23.138 76.1063 19.415 78.1463 14.791C78.1463 14.655 78.2313 14.4 78.4013 14.026C78.6053 13.652 78.7583 13.414 78.8603 13.312C79.0983 13.074 79.4213 12.955 79.8293 12.955C81.0193 12.955 81.6653 13.193 81.7673 13.669C81.2233 14.553 80.6963 15.573 80.1863 16.729C79.7103 17.885 79.2343 19.16 78.7583 20.554C78.2483 22.05 77.8743 23.291 77.6363 24.277C77.4323 25.229 77.3303 25.994 77.3303 26.572C77.3303 27.422 77.5513 27.847 77.9933 27.847C78.2993 27.847 78.6903 27.66 79.1663 27.286C79.5403 26.98 79.7953 26.759 79.9313 26.623C80.1013 26.487 80.2543 26.368 80.3903 26.266C80.5263 26.266 80.5943 26.334 80.5943 26.47C80.5943 26.844 80.1013 27.32 79.1153 27.898C78.1293 28.476 77.4323 28.765 77.0243 28.765ZM68.8356 51.307C66.4556 51.307 64.4836 50.644 62.9196 49.318C61.3216 47.992 60.5226 46.156 60.5226 43.81C60.5226 41.498 61.8316 39.169 64.4496 36.823C67.0336 34.545 70.2806 32.709 74.1906 31.315C77.9646 29.955 81.7386 29.275 85.5126 29.275C87.2466 29.275 88.7256 29.428 89.9496 29.734C90.0856 29.36 90.1536 28.986 90.1536 28.612C90.1536 27.456 90.0176 26.64 89.7456 26.164C88.4196 27.388 87.2126 28 86.1246 28C85.0366 28 84.0846 27.473 83.2686 26.419C82.4526 25.331 82.0446 24.209 82.0446 23.053C82.0446 20.673 83.3536 18.208 85.9716 15.658C85.9716 13.686 86.1756 12.377 86.5836 11.731C87.0596 11.051 87.8586 10.711 88.9806 10.711C90.2046 10.711 91.4966 11.833 92.8566 14.077C95.3046 14.519 96.5286 15.42 96.5286 16.78C96.5286 17.324 96.3246 17.749 95.9166 18.055C95.5426 18.327 95.3556 18.31 95.3556 18.004C95.6956 17.766 95.8656 17.494 95.8656 17.188C95.8656 16.168 95.0496 15.658 93.4176 15.658C93.4516 15.794 93.4686 15.947 93.4686 16.117C93.4686 16.287 93.4686 16.491 93.4686 16.729C93.4686 19.993 92.4826 22.866 90.5106 25.348C91.0206 26.3 91.2756 27.575 91.2756 29.173C91.2756 29.343 91.2756 29.496 91.2756 29.632C91.2756 29.802 91.2586 29.972 91.2246 30.142C92.6186 30.686 93.7746 31.434 94.6926 32.386C95.6446 33.304 96.1206 34.171 96.1206 34.987C96.1206 35.837 95.9166 36.262 95.5086 36.262C95.4066 36.262 95.3216 36.16 95.2536 35.956C95.5256 35.582 95.6616 35.225 95.6616 34.885C95.6616 34.171 95.2026 33.457 94.2846 32.743C93.3666 32.029 92.3636 31.502 91.2756 31.162C90.8676 34.596 89.5586 37.894 87.3486 41.056C85.1386 44.184 82.3846 46.666 79.0866 48.502C75.7886 50.372 72.3716 51.307 68.8356 51.307ZM86.8896 14.944C87.9776 14.196 89.0316 13.822 90.0516 13.822H90.4596C90.0176 12.7 89.3036 12.139 88.3176 12.139C87.3656 12.139 86.8896 13.057 86.8896 14.893V14.944ZM89.9496 24.124C91.1736 22.322 91.7856 20.367 91.7856 18.259C91.7856 17.307 91.6326 16.457 91.3266 15.709C90.7486 15.913 89.9156 16.304 88.8276 16.882C87.7736 17.426 87.2466 17.817 87.2466 18.055C87.2466 18.293 88.1476 20.316 89.9496 24.124ZM86.0736 27.388C87.2636 27.388 88.3856 26.555 89.4396 24.889L86.7876 18.565C86.0736 19.279 85.4276 20.248 84.8496 21.472C84.3056 22.696 84.0336 23.784 84.0336 24.736C84.0336 26.504 84.7136 27.388 86.0736 27.388ZM67.9176 49.165C70.3316 49.165 72.6946 48.706 75.0066 47.788C77.2846 46.87 79.5116 45.459 81.6876 43.555C85.9036 39.815 88.5896 35.582 89.7456 30.856C89.3376 30.788 88.8446 30.72 88.2666 30.652C87.7226 30.618 87.0936 30.601 86.3796 30.601C83.1496 30.601 79.9706 31.009 76.8426 31.825C73.7146 32.675 71.0456 33.746 68.8356 35.038C66.5916 36.33 64.8066 37.724 63.4806 39.22C62.8006 39.968 62.2906 40.75 61.9506 41.566C61.6106 42.382 61.4406 43.164 61.4406 43.912C61.4406 45.374 62.0186 46.615 63.1746 47.635C64.2966 48.655 65.8776 49.165 67.9176 49.165ZM95.4269 29.887C95.2229 29.887 95.0359 29.802 94.8659 29.632C93.0639 27.728 92.1629 26.691 92.1629 26.521C92.1629 26.317 92.2649 26.215 92.4689 26.215H92.5709C93.4889 25.637 94.2539 25.127 94.8659 24.685C95.1719 23.529 95.5799 22.203 96.0899 20.707C96.6339 19.211 97.2459 17.681 97.9259 16.117L100.833 9.436C101.479 7.94 101.972 6.665 102.312 5.611C102.686 4.523 102.873 3.639 102.873 2.959C102.873 2.211 102.55 1.837 101.904 1.837L100.119 2.194C99.9489 2.194 99.8639 2.092 99.8639 1.888C99.8639 1.378 100.51 1.123 101.802 1.123C103.094 1.123 104.063 1.361 104.709 1.837C105.355 2.279 105.678 2.891 105.678 3.673C105.678 4.387 104.913 6.308 103.383 9.436L100.374 15.607L97.3649 22.543C98.7589 21.319 100.136 19.891 101.496 18.259C102.89 16.593 103.927 15.267 104.607 14.281C105.321 13.261 105.729 12.751 105.831 12.751H106.086C107.31 12.751 107.922 12.972 107.922 13.414C107.922 13.38 107.905 13.38 107.871 13.414C107.871 13.414 107.888 13.431 107.922 13.465V13.414C107.888 13.346 107.803 13.448 107.667 13.72C107.191 14.57 106.732 15.522 106.29 16.576C105.882 17.63 105.491 18.769 105.117 19.993C104.369 22.373 103.995 23.971 103.995 24.787C103.995 26.861 104.352 27.898 105.066 27.898C105.304 27.898 105.797 27.575 106.545 26.929C106.647 26.929 106.698 27.065 106.698 27.337C106.698 28.221 106.205 28.663 105.219 28.663C104.267 28.663 103.485 28.17 102.873 27.184C102.261 26.198 101.955 25.059 101.955 23.767C101.955 22.373 102.278 20.809 102.924 19.075C101.836 20.197 100.748 21.234 99.6599 22.186C98.6059 23.104 97.5859 23.954 96.5999 24.736C95.9199 26.674 95.5799 27.983 95.5799 28.663V28.918C95.8859 29.122 96.0389 29.292 96.0389 29.428C96.0389 29.734 95.8349 29.887 95.4269 29.887ZM94.4579 28.306C94.4579 28.238 94.4409 28.136 94.4069 28C94.4069 27.898 94.4069 27.779 94.4069 27.643C94.4069 27.303 94.4579 26.81 94.5599 26.164C94.1859 26.368 93.8799 26.521 93.6419 26.623C93.4039 26.725 93.2509 26.793 93.1829 26.827C93.3529 27.065 93.5399 27.32 93.7439 27.592C93.9479 27.83 94.1859 28.068 94.4579 28.306ZM109.592 28.969C108.096 28.969 107.348 28.17 107.348 26.572C107.348 25.144 107.824 23.274 108.776 20.962C109.15 20.078 109.524 19.194 109.898 18.31C110.272 17.426 110.697 16.423 111.173 15.301C110.017 14.859 109.439 14.196 109.439 13.312C109.439 13.04 109.507 12.853 109.643 12.751C110.153 12.989 110.935 13.159 111.989 13.261C113.111 10.745 113.672 9.147 113.672 8.467C113.672 7.719 113.536 7.345 113.264 7.345L112.244 7.6C112.142 7.6 112.091 7.549 112.091 7.447C112.091 7.175 112.295 6.971 112.703 6.835C113.111 6.665 113.417 6.58 113.621 6.58C115.117 6.58 115.865 7.43 115.865 9.13C115.865 10.116 115.559 11.408 114.947 13.006C115.083 13.142 115.695 13.21 116.783 13.21C117.905 13.21 118.755 13.091 119.333 12.853C119.877 12.581 120.268 12.445 120.506 12.445C120.608 12.445 120.659 12.479 120.659 12.547C120.659 12.649 120.574 12.785 120.404 12.955C119.69 13.567 118.84 14.094 117.854 14.536C116.902 14.978 115.797 15.284 114.539 15.454H114.386C114.352 15.454 114.301 15.471 114.233 15.505C114.165 15.505 114.029 15.539 113.825 15.607C110.731 21.761 109.184 25.671 109.184 27.337C109.184 27.881 109.388 28.153 109.796 28.153L111.224 27.847L111.275 27.898C111.275 28.612 110.714 28.969 109.592 28.969ZM119.019 29.173C118.169 29.173 117.421 29.02 116.775 28.714C116.163 28.408 115.857 28.119 115.857 27.847C119.767 27.031 121.722 26.045 121.722 24.889C121.722 24.651 121.263 24.124 120.345 23.308C118.577 21.744 117.693 19.993 117.693 18.055C117.693 16.661 118.56 15.284 120.294 13.924C122.096 12.496 123.728 11.782 125.19 11.782C125.428 11.782 125.904 12.139 126.618 12.853C127.332 13.567 127.689 14.026 127.689 14.23C127.689 14.4 127.604 14.485 127.434 14.485C127.06 14.417 126.754 14.366 126.516 14.332C126.278 14.264 126.108 14.23 126.006 14.23C124.476 14.23 122.895 14.791 121.263 15.913C119.665 17.035 118.866 18.174 118.866 19.33C118.866 19.534 119.665 20.571 121.263 22.441C122.861 24.243 123.66 25.484 123.66 26.164C123.66 26.844 123.184 27.507 122.232 28.153C121.722 28.493 121.178 28.748 120.6 28.918C120.056 29.088 119.529 29.173 119.019 29.173Z" fill="#E73232"/>
</svg>
