<svg width="49" height="49" viewBox="0 0 49 49" fill="none" xmlns="http://www.w3.org/2000/svg">
<g clip-path="url(#clip0_180_431)">
<path fill-rule="evenodd" clip-rule="evenodd" d="M10.675 6.65C11.48 2.8 15.12 0 19.25 0C23.975 0 28 3.57 28 8.26V40.775C28 45.465 23.975 49.035 19.25 49.035C15.085 49.035 11.48 46.27 10.675 42.385C6.685 41.685 3.5 38.43 3.5 34.265V30.24C1.435 29.12 0 27.02 0 24.5C0 21.98 1.435 19.88 3.5 18.76V14.735C3.5 10.605 6.685 7.315 10.675 6.615V6.65ZM17.5 12.25C14.595 12.25 12.25 14.595 12.25 17.5C12.25 18.48 13.02 19.25 14 19.25C14.98 19.25 15.75 18.48 15.75 17.5C15.75 16.52 16.52 15.75 17.5 15.75C18.48 15.75 19.25 14.98 19.25 14C19.25 13.02 18.48 12.25 17.5 12.25ZM12.25 31.5C12.25 34.405 14.595 36.75 17.5 36.75C18.48 36.75 19.25 35.98 19.25 35C19.25 34.02 18.48 33.25 17.5 33.25C16.52 33.25 15.75 32.48 15.75 31.5C15.75 30.52 14.98 29.75 14 29.75C13.02 29.75 12.25 30.52 12.25 31.5ZM43.75 0C40.845 0 38.5 2.345 38.5 5.25C38.5 6.58 38.99 7.805 39.83 8.75L35.875 14H31.5C30.52 14 29.75 14.77 29.75 15.75C29.75 16.73 30.52 17.5 31.5 17.5H36.75C37.31 17.5 37.835 17.255 38.15 16.8L42.91 10.43C43.19 10.465 43.47 10.5 43.75 10.5C46.655 10.5 49 8.155 49 5.25C49 2.345 46.655 0 43.75 0ZM43.75 19.25C41.475 19.25 39.515 20.72 38.815 22.75H31.5C30.52 22.75 29.75 23.52 29.75 24.5C29.75 25.48 30.52 26.25 31.5 26.25H38.815C39.55 28.28 41.475 29.75 43.75 29.75C46.655 29.75 49 27.405 49 24.5C49 21.595 46.655 19.25 43.75 19.25ZM38.5 43.75C38.5 42.42 38.99 41.195 39.83 40.25L35.875 35H31.5C30.52 35 29.75 34.23 29.75 33.25C29.75 32.27 30.52 31.5 31.5 31.5H36.75C37.31 31.5 37.835 31.745 38.15 32.2L42.91 38.57C43.19 38.535 43.47 38.5 43.75 38.5C46.655 38.5 49 40.845 49 43.75C49 46.655 46.655 49 43.75 49C40.845 49 38.5 46.655 38.5 43.75Z" fill="#2B2F38"/>
</g>
<defs>
<clipPath id="clip0_180_431">
<rect width="49" height="49" fill="white"/>
</clipPath>
</defs>
</svg>
