<svg width="60" height="48" viewBox="0 0 60 48" fill="none" xmlns="http://www.w3.org/2000/svg">
<path d="M1.85984 45.6066C4.58651 48.3332 9.09984 48.0132 11.4132 44.9266L22.5332 30.0999L25.8065 33.3732C28.2798 35.8466 32.2932 35.8466 34.7665 33.3732L39.3332 28.8066L18.6532 8.13989L14.0865 12.7066C11.6132 15.1799 11.6132 19.1932 14.0865 21.6666L17.3598 24.9399L2.53317 36.0532C-0.553492 38.3666 -0.873492 42.8799 1.85317 45.6066H1.85984Z" fill="#2B2F38"/>
<path d="M35.5267 1.07332C31.6201 -0.880017 26.9067 -0.11335 23.8201 2.97332L21.2334 5.55998L41.9067 26.2333L59.9934 8.14665C53.1934 8.14665 46.4934 6.56665 40.4134 3.52665L35.5267 1.07998V1.07332Z" fill="#2B2F38"/>
</svg>
