<svg width="45" height="45" viewBox="0 0 45 45" fill="none" xmlns="http://www.w3.org/2000/svg">
<path fill-rule="evenodd" clip-rule="evenodd" d="M43.44 14.25C44.445 16.8 45 19.59 45 22.5C45 25.41 44.445 28.185 43.44 30.75C40.11 29.73 36.24 28.95 32.04 28.47C32.175 26.55 32.25 24.555 32.25 22.5C32.25 20.445 32.175 18.45 32.04 16.53C36.255 16.05 40.11 15.27 43.44 14.25ZM1.56 30.75C0.555 28.2 0 25.41 0 22.5C0 19.59 0.555 16.815 1.56 14.25C4.89 15.27 8.76 16.05 12.96 16.53C12.825 18.45 12.75 20.445 12.75 22.5C12.75 24.555 12.825 26.55 12.96 28.47C8.745 28.95 4.89 29.73 1.56 30.75ZM29.055 28.185C26.94 28.02 24.75 27.945 22.5 27.945C20.25 27.945 18.06 28.035 15.945 28.185C15.81 26.355 15.75 24.45 15.75 22.5C15.75 20.55 15.825 18.645 15.945 16.815C18.06 16.98 20.25 17.055 22.5 17.055C24.75 17.055 26.94 16.965 29.055 16.815C29.19 18.645 29.25 20.55 29.25 22.5C29.25 24.45 29.175 26.355 29.055 28.185ZM42.06 33.63C39.195 38.655 34.455 42.465 28.8 44.115C30.12 40.95 31.155 36.63 31.74 31.635C35.52 32.07 39.015 32.745 42.06 33.645V33.63ZM25.05 44.85C24.21 44.94 23.37 45 22.5 45C21.63 45 20.79 44.955 19.95 44.85C19.62 44.295 19.29 43.665 18.99 42.945C17.745 40.035 16.785 36.015 16.23 31.32C18.255 31.17 20.34 31.095 22.485 31.095C24.63 31.095 26.715 31.17 28.74 31.32C28.2 36 27.24 40.035 25.98 42.945C25.68 43.65 25.35 44.295 25.02 44.85H25.05ZM16.2 44.1C10.545 42.45 5.805 38.64 2.94 33.615C5.985 32.715 9.48 32.04 13.26 31.605C13.845 36.615 14.88 40.935 16.2 44.085V44.1ZM2.94 11.37C5.805 6.36 10.545 2.55 16.2 0.9C14.88 4.065 13.845 8.385 13.26 13.38C9.48 12.945 5.985 12.27 2.94 11.37ZM19.95 0.15C20.79 0.06 21.63 0 22.5 0C23.37 0 24.21 0.045 25.05 0.15C25.38 0.705 25.71 1.335 26.01 2.055C27.255 4.965 28.215 8.985 28.77 13.68C26.745 13.83 24.66 13.905 22.515 13.905C20.37 13.905 18.285 13.83 16.26 13.68C16.8 9 17.76 4.965 19.02 2.055C19.32 1.35 19.65 0.705 19.98 0.15H19.95ZM28.8 0.9C34.455 2.55 39.195 6.36 42.06 11.385C39.015 12.285 35.52 12.96 31.74 13.395C31.155 8.385 30.12 4.065 28.8 0.915V0.9Z" fill="#2B2F38"/>
</svg>
