<svg width="52" height="52" viewBox="0 0 52 52" fill="none" xmlns="http://www.w3.org/2000/svg">
<g clip-path="url(#clip0_180_407)">
<path d="M0.365723 21.4444C2.71277 18.1799 7.66578 15.5571 14.1047 14.1049C15.5512 7.67165 18.1797 2.71302 21.4441 0.365967C10.6882 2.18957 2.18933 10.6885 0.365723 21.4444Z" fill="#2B2F38"/>
<path d="M13.8459 36.1625C13.2211 32.9712 12.8778 29.4647 12.8778 25.75C12.8778 22.0352 13.2211 18.5231 13.8459 15.3374C5.62279 17.3017 0 21.2304 0 25.75C0 30.2696 5.62279 34.1982 13.8459 36.1625Z" fill="#2B2F38"/>
<path d="M25.75 0C21.2304 0 17.3017 5.62279 15.3374 13.8459C18.5287 13.2211 22.0352 12.8778 25.75 12.8778C29.4647 12.8778 32.9769 13.2211 36.1625 13.8459C34.1982 5.62279 30.2696 0 25.75 0Z" fill="#2B2F38"/>
<path d="M15.0618 15.0616C14.3808 18.3204 13.998 21.9339 13.998 25.7499C13.998 29.566 14.3808 33.1794 15.0618 36.4383C18.3207 37.1193 21.9341 37.5021 25.7502 37.5021C29.5662 37.5021 33.1797 37.1193 36.4385 36.4383C37.1196 33.1794 37.5023 29.566 37.5023 25.7499C37.5023 21.9339 37.1196 18.3204 36.4385 15.0616C33.1797 14.3805 29.5662 13.9978 25.7502 13.9978C21.9341 13.9978 18.3207 14.3805 15.0618 15.0616ZM25.3956 18.8551C21.5908 18.8551 18.5008 21.568 18.5008 24.9057H17.3751C17.3751 20.9489 20.9717 17.7294 25.3956 17.7294V18.8551ZM26.1048 32.6447C29.9096 32.6447 32.9996 29.9318 32.9996 26.5942H34.1253C34.1253 30.551 30.5287 33.7704 26.1048 33.7704V32.6447Z" fill="#2B2F38"/>
<path d="M37.6543 15.3374C38.2791 18.5287 38.6224 22.0352 38.6224 25.75C38.6224 29.4647 38.2791 32.9769 37.6543 36.1625C45.8774 34.1982 51.5002 30.2696 51.5002 25.75C51.5002 21.2304 45.8774 17.3017 37.6543 15.3374Z" fill="#2B2F38"/>
<path d="M21.4441 51.1341C18.1797 48.787 15.5568 43.834 14.1047 37.4007C7.67141 35.9542 2.71277 33.3258 0.365723 30.0613C2.1837 40.8116 10.6882 49.3161 21.4385 51.1341H21.4441Z" fill="#2B2F38"/>
<path d="M51.1343 30.0557C48.7873 33.3145 43.8343 35.943 37.401 37.3951C35.9545 43.8284 33.326 48.787 30.0615 51.1284C40.8118 49.3105 49.3163 40.8059 51.1343 30.0557Z" fill="#2B2F38"/>
<path d="M30.0557 0.365967C33.3201 2.71302 35.943 7.66602 37.3951 14.1049C43.8284 15.5514 48.787 18.1799 51.1284 21.4444C49.3105 10.6885 40.8116 2.18957 30.0557 0.365967Z" fill="#2B2F38"/>
<path d="M36.1625 37.6541C32.9712 38.2788 29.4647 38.6221 25.75 38.6221C22.0352 38.6221 18.5231 38.2788 15.3374 37.6541C17.3017 45.8772 21.2304 51.5 25.75 51.5C30.2696 51.5 34.1982 45.8772 36.1625 37.6541Z" fill="#2B2F38"/>
</g>
<defs>
<clipPath id="clip0_180_407">
<rect width="51.5" height="51.5" fill="white"/>
</clipPath>
</defs>
</svg>
