<svg width="41" height="48" viewBox="0 0 41 48" fill="none" xmlns="http://www.w3.org/2000/svg">
<g clip-path="url(#clip0_180_426)">
<path d="M20.0541 0C20.0541 0 19.5528 0.111413 19.3299 0.222825L0.723997 11.8655C0.0555201 12.3111 -0.167305 13.2024 0.222639 13.8709C0.334052 14.038 0.501171 14.2051 0.723997 14.3722L19.3299 26.0149C19.8313 26.2934 20.3884 26.2934 20.8897 26.0149L39.4956 14.3722C40.1641 13.9266 40.3869 13.0353 39.997 12.3668C39.8856 12.1997 39.7185 12.0326 39.4956 11.8655L20.8897 0.222825C20.8897 0.222825 20.3326 0 20.0541 0ZM4.28921 20.11L0.723997 22.3383C0.0555201 22.7839 -0.167305 23.6752 0.278346 24.3994C0.389758 24.5665 0.556878 24.7336 0.723997 24.845L19.3299 36.4877C19.8313 36.7662 20.3884 36.7662 20.8897 36.4877L39.4956 24.845C40.1641 24.3994 40.3869 23.5081 39.9413 22.7839C39.8299 22.6168 39.6628 22.4497 39.4956 22.3383L35.9304 20.11L22.4495 28.5217C21.0011 29.413 19.2185 29.413 17.7702 28.5217L4.28921 20.11ZM4.28921 30.5271L0.723997 32.7554C0.0555201 33.201 -0.167305 34.0923 0.278346 34.7608C0.389758 34.9279 0.556878 35.095 0.723997 35.2064L19.3299 46.8491C19.8313 47.1276 20.3884 47.1276 20.8897 46.8491L39.4956 35.2064C40.1641 34.7608 40.3869 33.8695 39.9413 33.201C39.8299 33.0339 39.6628 32.8668 39.4956 32.7554L35.9304 30.5271L22.4495 38.9945C21.0011 39.8858 19.2185 39.8858 17.7702 38.9945L4.28921 30.5271Z" fill="#2B2F38"/>
</g>
<defs>
<clipPath id="clip0_180_426">
<rect width="40.22" height="47.1833" fill="white"/>
</clipPath>
</defs>
</svg>
