<svg width="56" height="48" viewBox="0 0 56 48" fill="none" xmlns="http://www.w3.org/2000/svg">
<g clip-path="url(#clip0_180_423)">
<path d="M41.44 47.04H14.56C13.5831 47.04 12.8987 45.7956 14.0249 44.8H17.92V42.56C17.92 41.3218 18.9218 40.32 20.16 40.32H35.84C37.0782 40.32 38.08 41.3218 38.08 42.56V44.8H41.9751C43.1013 45.7893 42.4169 47.04 41.44 47.04ZM52.64 0H3.36C1.50578 0 0 1.50578 0 3.36V29.7049L11.48 18.2249C11.8098 17.9013 12.3013 17.8142 12.7244 18.0009L27.6267 25.0071L36.0453 13.0853C36.3813 12.6062 37.0284 12.4693 37.5324 12.768L46.0009 17.8142L56 7.81511V3.36C56 1.50578 54.4942 0.00622222 52.64 0ZM45.6027 20.1849L37.2773 15.2071L28.9147 27.0293C28.6036 27.4711 28.0124 27.6267 27.5209 27.3964L12.5067 20.3653L0 32.8533V34.72C0 36.5742 1.50578 38.0738 3.36 38.08H52.64C54.4942 38.08 55.9938 36.5742 56 34.72V10.9822L46.9653 20.0169C46.6044 20.3778 46.0444 20.4462 45.6027 20.1849Z" fill="#2B2F38"/>
</g>
<defs>
<clipPath id="clip0_180_423">
<rect width="56" height="47.04" fill="white"/>
</clipPath>
</defs>
</svg>
