<svg width="43" height="44" viewBox="0 0 43 44" fill="none" xmlns="http://www.w3.org/2000/svg">
<path d="M24.6697 0.999971C21.3604 0.999971 18.3519 2.80507 16.7473 5.66315C13.6385 5.964 11.0813 8.32066 10.63 11.4294C8.67451 11.981 7.2204 13.7861 7.2204 15.8921C7.2204 18.4493 9.32635 20.5552 11.8836 20.5552H19.9564V24.717H6.76913V32.4889H1.30368C1.30368 32.4889 1.2034 32.4889 1.15326 32.4889C0.501417 32.4889 0 33.0906 0 33.7425V36.6006H16.1456V33.7425C16.1456 32.9904 15.5439 32.4388 14.7918 32.4388H9.37649V27.3244H33.0434V32.4388H27.5779C27.5779 32.4388 27.4776 32.4388 27.4275 32.4388C26.7757 32.4889 26.2241 33.0906 26.2241 33.7425V36.6006H42.3697V33.7425C42.3697 32.9904 41.768 32.4388 41.0159 32.4388H35.6006V24.6668H22.5136V20.5051H30.4861C33.0434 20.5051 35.1493 18.3991 35.1493 15.8419C35.1493 14.3878 34.4473 13.0841 33.3944 12.2317C33.5448 11.5297 33.6451 10.8277 33.6451 10.0756C33.6451 5.06145 29.5334 0.949829 24.5193 0.949829L24.6697 0.999971ZM0 39.2581V42.1161C0 42.8683 0.6017 43.47 1.30368 43.47H14.7918C15.5439 43.47 16.1456 42.8683 16.1456 42.1663V39.3082H0V39.2581ZM26.2742 39.2581V42.1161C26.2742 42.8683 26.8759 43.47 27.5779 43.47H41.1162C41.8683 43.47 42.47 42.8683 42.47 42.1663V39.3082H26.3244L26.2742 39.2581Z" fill="#2B2F38"/>
</svg>
